<?xml version="1.0" encoding="UTF-8" standalone="no"?>
<!DOCTYPE svg PUBLIC "-//W3C//DTD SVG 1.1//EN" "http://www.w3.org/Graphics/SVG/1.1/DTD/svg11.dtd">
<svg width="100%" height="100%" viewBox="0 0 1667 1667" version="1.1" xmlns="http://www.w3.org/2000/svg" xmlns:xlink="http://www.w3.org/1999/xlink" xml:space="preserve" xmlns:serif="http://www.serif.com/" style="fill-rule:evenodd;clip-rule:evenodd;stroke-linejoin:round;stroke-miterlimit:2;">
    <g id="Page-16" serif:id="Page 16" transform="matrix(4.16667,0,0,4.16667,0,0)">
        <rect x="0" y="0" width="400" height="400" style="fill:none;"/>
        <clipPath id="_clip1">
            <rect x="0" y="0" width="400" height="400"/>
        </clipPath>
        <g clip-path="url(#_clip1)">
            <g id="Layer-1" serif:id="Layer 1">
                <g transform="matrix(287.506,0,0,-287.506,75.0671,181.822)">
                    <path d="M0.426,0.495C0.447,0.453 0.459,0.405 0.459,0.354C0.459,0.182 0.319,0.042 0.147,0.042C0.096,0.042 0.048,0.054 0.006,0.075C0.002,0.051 -0,0.026 -0,-0C-0,-0.276 0.224,-0.5 0.5,-0.5C0.623,-0.5 0.736,-0.456 0.823,-0.382C0.825,-0.381 0.827,-0.381 0.828,-0.382L0.94,-0.494C0.943,-0.496 0.947,-0.495 0.947,-0.492L0.947,-0.226C0.947,-0.225 0.947,-0.225 0.947,-0.224C0.981,-0.157 1,-0.081 1,-0C1,0.276 0.776,0.5 0.5,0.5C0.475,0.5 0.45,0.499 0.426,0.495ZM0.652,-0.098C0.652,-0.059 0.683,-0.028 0.722,-0.028C0.761,-0.028 0.792,-0.059 0.792,-0.098C0.792,-0.137 0.761,-0.168 0.722,-0.168C0.683,-0.168 0.652,-0.137 0.652,-0.098ZM0.43,-0.098C0.43,-0.059 0.461,-0.028 0.5,-0.028C0.539,-0.028 0.57,-0.059 0.57,-0.098C0.57,-0.137 0.539,-0.168 0.5,-0.168C0.461,-0.168 0.43,-0.137 0.43,-0.098ZM0.208,-0.098C0.208,-0.059 0.239,-0.028 0.278,-0.028C0.317,-0.028 0.348,-0.059 0.348,-0.098C0.348,-0.137 0.317,-0.168 0.278,-0.168C0.239,-0.168 0.208,-0.137 0.208,-0.098Z" style="fill:url(#_Linear2);fill-rule:nonzero;"/>
                </g>
                <g transform="matrix(0,151.28,151.28,0,113.004,0)">
                    <path d="M0,-0.32C0,-0.419 0.081,-0.5 0.18,-0.5C0.28,-0.5 0.36,-0.419 0.36,-0.32C0.36,-0.22 0.28,-0.14 0.18,-0.14C0.081,-0.14 0,-0.22 0,-0.32ZM0.044,-0.052C0.085,-0.031 0.131,-0.02 0.18,-0.02C0.194,-0.02 0.208,-0.021 0.222,-0.022C0.22,-0.009 0.219,0.005 0.219,0.02C0.219,0.185 0.354,0.32 0.52,0.32C0.685,0.32 0.82,0.185 0.82,0.02C0.82,-0.146 0.685,-0.28 0.52,-0.28C0.505,-0.28 0.491,-0.279 0.478,-0.278C0.479,-0.291 0.48,-0.305 0.48,-0.32C0.48,-0.368 0.469,-0.414 0.448,-0.455C0.471,-0.459 0.495,-0.46 0.52,-0.46C0.785,-0.46 1,-0.246 1,0.02C1,0.285 0.785,0.5 0.52,0.5C0.254,0.5 0.039,0.285 0.039,0.02C0.039,-0.005 0.041,-0.029 0.044,-0.052ZM0.52,-0.16C0.619,-0.16 0.7,-0.08 0.7,0.02C0.7,0.119 0.619,0.2 0.52,0.2C0.42,0.2 0.339,0.119 0.339,0.02C0.339,-0.08 0.42,-0.16 0.52,-0.16Z" style="fill:url(#_Linear3);fill-rule:nonzero;"/>
                </g>
                <g transform="matrix(0,179.806,179.806,0,113.004,-14.2633)">
                    <path d="M0.231,-0.42C0.315,-0.42 0.382,-0.353 0.382,-0.269C0.382,-0.185 0.315,-0.117 0.231,-0.117C0.147,-0.117 0.079,-0.185 0.079,-0.269C0.079,-0.353 0.147,-0.42 0.231,-0.42ZM0.117,-0.044C0.151,-0.026 0.19,-0.016 0.231,-0.016C0.243,-0.016 0.255,-0.017 0.266,-0.019C0.265,-0.007 0.264,0.004 0.264,0.016C0.264,0.156 0.377,0.269 0.516,0.269C0.656,0.269 0.769,0.156 0.769,0.016C0.769,-0.123 0.656,-0.236 0.516,-0.236C0.504,-0.236 0.493,-0.235 0.481,-0.234C0.483,-0.245 0.484,-0.257 0.484,-0.269C0.484,-0.31 0.474,-0.349 0.456,-0.383C0.476,-0.386 0.496,-0.387 0.516,-0.387C0.74,-0.387 0.921,-0.207 0.921,0.016C0.921,0.24 0.74,0.42 0.516,0.42C0.293,0.42 0.112,0.24 0.112,0.016C0.112,-0.004 0.114,-0.024 0.117,-0.044ZM0.516,-0.135C0.6,-0.135 0.668,-0.067 0.668,0.016C0.668,0.1 0.6,0.168 0.516,0.168C0.433,0.168 0.365,0.1 0.365,0.016C0.365,-0.067 0.433,-0.135 0.516,-0.135Z" style="fill:url(#_Linear4);fill-rule:nonzero;"/>
                </g>
                <g transform="matrix(1,0,0,1,55.4301,354.402)">
                    <path d="M0,39.636C2.226,39.636 4.211,39.102 5.956,38.031C7.701,36.962 9.088,35.487 10.114,33.609C11.138,31.732 11.652,29.635 11.652,27.319C11.652,24.961 11.138,22.864 10.114,21.03C9.088,19.195 7.701,17.744 5.956,16.673C4.211,15.604 2.226,15.068 0,15.068C-2.183,15.068 -4.157,15.604 -5.924,16.673C-7.692,17.744 -9.078,19.195 -10.082,21.03C-11.086,22.864 -11.587,24.961 -11.587,27.319C-11.587,29.635 -11.086,31.732 -10.082,33.609C-9.078,35.487 -7.692,36.962 -5.924,38.031C-4.157,39.102 -2.183,39.636 0,39.636M0,45.532C-3.405,45.532 -6.46,44.736 -9.165,43.141C-11.872,41.547 -14.009,39.374 -15.58,36.623C-17.152,33.871 -17.959,30.77 -18.003,27.319L-18.003,-2.556C-18.003,-3.56 -17.686,-4.367 -17.053,-4.979C-16.421,-5.59 -15.624,-5.896 -14.663,-5.896C-13.66,-5.896 -12.853,-5.59 -12.242,-4.979C-11.631,-4.367 -11.325,-3.56 -11.325,-2.556L-11.325,15.134C-9.798,13.299 -7.954,11.848 -5.794,10.777C-3.633,9.707 -1.266,9.172 1.309,9.172C4.494,9.172 7.352,9.969 9.884,11.563C12.415,13.158 14.411,15.32 15.874,18.049C17.335,20.779 18.067,23.87 18.067,27.319C18.067,30.77 17.27,33.871 15.677,36.623C14.084,39.374 11.936,41.547 9.229,43.141C6.523,44.736 3.446,45.532 0,45.532" style="fill:rgb(195,227,247);fill-rule:nonzero;"/>
                </g>
                <g transform="matrix(1,0,0,1,87.4407,349.358)">
                    <path d="M0,50.315C-0.96,50.315 -1.758,49.999 -2.39,49.365C-3.023,48.732 -3.34,47.935 -3.34,46.974L-3.34,17.819C-3.34,16.815 -3.023,16.008 -2.39,15.396C-1.758,14.785 -0.96,14.478 0,14.478C1.003,14.478 1.81,14.785 2.422,15.396C3.032,16.008 3.338,16.815 3.338,17.819L3.338,46.974C3.338,47.935 3.032,48.732 2.422,49.365C1.81,49.999 1.003,50.315 0,50.315M0,8.648C-1.178,8.648 -2.193,8.222 -3.044,7.37C-3.895,6.519 -4.321,5.503 -4.321,4.324C-4.321,3.144 -3.895,2.129 -3.044,1.277C-2.193,0.426 -1.178,0 0,0C1.178,0 2.192,0.426 3.043,1.277C3.894,2.129 4.32,3.144 4.32,4.324C4.32,5.503 3.894,6.519 3.043,7.37C2.192,8.222 1.178,8.648 0,8.648" style="fill:rgb(195,227,247);fill-rule:nonzero;"/>
                </g>
                <g transform="matrix(1,0,0,1,133.459,363.508)">
                    <path d="M0,36.23C-0.96,36.23 -1.758,35.914 -2.39,35.28C-3.023,34.647 -3.34,33.85 -3.34,32.889L-3.34,16.772C-3.34,14.283 -3.798,12.252 -4.714,10.679C-5.631,9.107 -6.864,7.939 -8.413,7.174C-9.963,6.41 -11.741,6.028 -13.747,6.028C-15.581,6.028 -17.24,6.4 -18.723,7.142C-20.207,7.885 -21.385,8.878 -22.258,10.122C-23.131,11.368 -23.567,12.798 -23.567,14.414L-27.69,14.414C-27.69,11.662 -27.027,9.205 -25.695,7.043C-24.364,4.881 -22.542,3.168 -20.229,1.9C-17.916,0.634 -15.319,0 -12.438,0C-9.427,0 -6.733,0.645 -4.353,1.933C-1.976,3.222 -0.099,5.111 1.276,7.6C2.65,10.089 3.338,13.148 3.338,16.772L3.338,32.889C3.338,33.85 3.02,34.647 2.388,35.28C1.755,35.914 0.959,36.23 0,36.23M-26.905,36.23C-27.865,36.23 -28.663,35.914 -29.295,35.28C-29.928,34.647 -30.245,33.85 -30.245,32.889L-30.245,3.669C-30.245,2.665 -29.928,1.857 -29.295,1.245C-28.663,0.634 -27.865,0.328 -26.905,0.328C-25.902,0.328 -25.095,0.634 -24.483,1.245C-23.873,1.857 -23.567,2.665 -23.567,3.669L-23.567,32.889C-23.567,33.85 -23.873,34.647 -24.483,35.28C-25.095,35.914 -25.902,36.23 -26.905,36.23" style="fill:rgb(195,227,247);fill-rule:nonzero;"/>
                </g>
                <g transform="matrix(1,0,0,1,164.095,354.402)">
                    <path d="M0,39.636C2.226,39.636 4.211,39.102 5.956,38.031C7.701,36.962 9.076,35.487 10.08,33.609C11.083,31.732 11.586,29.635 11.586,27.319C11.586,24.961 11.083,22.864 10.08,21.03C9.076,19.195 7.701,17.744 5.956,16.673C4.211,15.604 2.226,15.068 0,15.068C-2.183,15.068 -4.157,15.604 -5.924,16.673C-7.692,17.744 -9.089,19.195 -10.115,21.03C-11.141,22.864 -11.652,24.961 -11.652,27.319C-11.652,29.635 -11.141,31.732 -10.115,33.609C-9.089,35.487 -7.692,36.962 -5.924,38.031C-4.157,39.102 -2.183,39.636 0,39.636M0,45.532C-3.405,45.532 -6.471,44.736 -9.199,43.141C-11.926,41.547 -14.086,39.374 -15.679,36.623C-17.272,33.871 -18.068,30.77 -18.068,27.319C-18.068,23.87 -17.338,20.779 -15.875,18.049C-14.414,15.32 -12.417,13.158 -9.885,11.563C-7.355,9.969 -4.496,9.172 -1.31,9.172C1.265,9.172 3.643,9.707 5.826,10.777C8.007,11.848 9.84,13.299 11.324,15.134L11.324,-2.556C11.324,-3.56 11.64,-4.367 12.274,-4.979C12.906,-5.59 13.703,-5.896 14.663,-5.896C15.667,-5.896 16.474,-5.59 17.085,-4.979C17.696,-4.367 18.002,-3.56 18.002,-2.556L18.002,27.319C18.002,30.77 17.204,33.871 15.612,36.623C14.018,39.374 11.869,41.547 9.164,43.141C6.457,44.736 3.404,45.532 0,45.532" style="fill:rgb(195,227,247);fill-rule:nonzero;"/>
                </g>
                <g transform="matrix(1,0,0,1,223.403,364.099)">
                    <path d="M0,35.574C-0.96,35.574 -1.758,35.258 -2.39,34.624C-3.023,33.991 -3.34,33.194 -3.34,32.233L-3.34,3.013C-3.34,2.009 -3.023,1.201 -2.39,0.589C-1.758,-0.022 -0.96,-0.328 0,-0.328C1.003,-0.328 1.81,-0.022 2.422,0.589C3.032,1.201 3.338,2.009 3.338,3.013L3.338,32.233C3.338,33.194 3.032,33.991 2.422,34.624C1.81,35.258 1.003,35.574 0,35.574M-14.468,35.902C-17.479,35.902 -20.174,35.258 -22.553,33.969C-24.932,32.681 -26.808,30.791 -28.182,28.302C-29.557,25.813 -30.245,22.756 -30.245,19.13L-30.245,3.013C-30.245,2.053 -29.928,1.256 -29.295,0.622C-28.663,-0.011 -27.865,-0.328 -26.905,-0.328C-25.946,-0.328 -25.15,-0.011 -24.517,0.622C-23.885,1.256 -23.567,2.053 -23.567,3.013L-23.567,19.13C-23.567,21.577 -23.109,23.596 -22.192,25.19C-21.276,26.784 -20.032,27.964 -18.461,28.728C-16.89,29.492 -15.123,29.874 -13.158,29.874C-11.282,29.874 -9.614,29.504 -8.151,28.76C-6.689,28.018 -5.522,27.014 -4.649,25.747C-3.776,24.48 -3.34,23.061 -3.34,21.488L0.785,21.488C0.785,24.197 0.119,26.643 -1.212,28.826C-2.543,31.01 -4.353,32.735 -6.644,34.002C-8.937,35.269 -11.544,35.902 -14.468,35.902" style="fill:rgb(195,227,247);fill-rule:nonzero;"/>
                </g>
                <g transform="matrix(1,0,0,1,251.549,363.574)">
                    <path d="M0,36.361C-3.055,36.361 -5.88,35.892 -8.477,34.953C-11.074,34.014 -13.092,32.824 -14.533,31.382C-15.187,30.684 -15.46,29.886 -15.35,28.991C-15.242,28.096 -14.817,27.364 -14.074,26.796C-13.202,26.098 -12.339,25.803 -11.488,25.912C-10.637,26.021 -9.907,26.403 -9.295,27.058C-8.553,27.888 -7.364,28.663 -5.728,29.384C-4.09,30.104 -2.27,30.465 -0.262,30.465C2.27,30.465 4.2,30.05 5.532,29.22C6.862,28.391 7.55,27.32 7.594,26.01C7.637,24.699 7.014,23.564 5.728,22.603C4.44,21.643 2.095,20.857 -1.309,20.245C-5.717,19.371 -8.914,18.061 -10.899,16.313C-12.885,14.567 -13.878,12.427 -13.878,9.893C-13.878,7.666 -13.223,5.821 -11.914,4.357C-10.604,2.894 -8.925,1.802 -6.873,1.081C-4.822,0.361 -2.684,0 -0.458,0C2.423,0 4.976,0.459 7.201,1.376C9.427,2.293 11.194,3.561 12.503,5.176C13.114,5.875 13.397,6.607 13.354,7.371C13.31,8.136 12.939,8.779 12.242,9.303C11.543,9.785 10.713,9.937 9.754,9.762C8.794,9.588 7.987,9.195 7.332,8.583C6.241,7.535 5.063,6.814 3.798,6.421C2.531,6.028 1.069,5.831 -0.589,5.831C-2.51,5.831 -4.134,6.159 -5.466,6.814C-6.797,7.469 -7.462,8.43 -7.462,9.696C-7.462,10.482 -7.256,11.193 -6.841,11.826C-6.427,12.46 -5.608,13.027 -4.386,13.529C-3.165,14.032 -1.375,14.523 0.982,15.003C4.256,15.658 6.841,16.489 8.739,17.493C10.639,18.498 12.001,19.666 12.831,20.998C13.659,22.331 14.074,23.87 14.074,25.617C14.074,27.626 13.54,29.439 12.471,31.054C11.401,32.67 9.83,33.959 7.757,34.92C5.684,35.881 3.099,36.361 0,36.361" style="fill:rgb(71,143,205);fill-rule:nonzero;"/>
                </g>
                <g transform="matrix(1,0,0,1,321.071,363.508)">
                    <path d="M0,36.23C-0.96,36.23 -1.758,35.914 -2.39,35.28C-3.023,34.647 -3.34,33.85 -3.34,32.889L-3.34,14.152C-3.34,11.4 -4.016,9.359 -5.369,8.026C-6.722,6.694 -8.489,6.028 -10.671,6.028C-12.94,6.028 -14.806,6.814 -16.268,8.386C-17.731,9.958 -18.461,11.968 -18.461,14.414L-23.894,14.414C-23.894,11.575 -23.284,9.074 -22.061,6.912C-20.84,4.75 -19.126,3.058 -16.922,1.835C-14.72,0.613 -12.199,0 -9.362,0C-6.874,0 -4.67,0.547 -2.749,1.638C-0.83,2.73 0.664,4.335 1.734,6.454C2.804,8.573 3.338,11.138 3.338,14.152L3.338,32.889C3.338,33.85 3.032,34.647 2.422,35.28C1.81,35.914 1.003,36.23 0,36.23M-21.799,36.23C-22.76,36.23 -23.556,35.914 -24.188,35.28C-24.821,34.647 -25.138,33.85 -25.138,32.889L-25.138,14.152C-25.138,11.4 -25.815,9.359 -27.167,8.026C-28.52,6.694 -30.287,6.028 -32.47,6.028C-34.74,6.028 -36.617,6.814 -38.099,8.386C-39.583,9.958 -40.325,11.968 -40.325,14.414L-44.449,14.414C-44.449,11.575 -43.882,9.074 -42.747,6.912C-41.613,4.75 -40.042,3.058 -38.034,1.835C-36.027,0.613 -33.735,0 -31.16,0C-28.672,0 -26.47,0.547 -24.549,1.638C-22.629,2.73 -21.134,4.335 -20.064,6.454C-18.996,8.573 -18.461,11.138 -18.461,14.152L-18.461,32.889C-18.461,33.85 -18.767,34.647 -19.378,35.28C-19.989,35.914 -20.796,36.23 -21.799,36.23M-43.663,36.23C-44.624,36.23 -45.421,35.914 -46.053,35.28C-46.686,34.647 -47.003,33.85 -47.003,32.889L-47.003,3.734C-47.003,2.73 -46.686,1.923 -46.053,1.311C-45.421,0.7 -44.624,0.393 -43.663,0.393C-42.66,0.393 -41.853,0.7 -41.241,1.311C-40.631,1.923 -40.325,2.73 -40.325,3.734L-40.325,32.889C-40.325,33.85 -40.631,34.647 -41.241,35.28C-41.853,35.914 -42.66,36.23 -43.663,36.23" style="fill:rgb(71,143,205);fill-rule:nonzero;"/>
                </g>
                <g transform="matrix(1,0,0,1,348.499,363.574)">
                    <path d="M0,36.361C-3.055,36.361 -5.88,35.892 -8.477,34.953C-11.074,34.014 -13.093,32.824 -14.533,31.382C-15.187,30.684 -15.46,29.886 -15.35,28.991C-15.242,28.096 -14.817,27.364 -14.074,26.796C-13.202,26.098 -12.339,25.803 -11.488,25.912C-10.637,26.021 -9.907,26.403 -9.295,27.058C-8.553,27.888 -7.364,28.663 -5.728,29.384C-4.09,30.104 -2.27,30.465 -0.262,30.465C2.27,30.465 4.2,30.05 5.532,29.22C6.862,28.391 7.55,27.32 7.594,26.01C7.637,24.699 7.014,23.564 5.728,22.603C4.44,21.643 2.095,20.857 -1.309,20.245C-5.717,19.371 -8.914,18.061 -10.899,16.313C-12.885,14.567 -13.878,12.427 -13.878,9.893C-13.878,7.666 -13.223,5.821 -11.914,4.357C-10.604,2.894 -8.925,1.802 -6.873,1.081C-4.822,0.361 -2.684,0 -0.458,0C2.423,0 4.976,0.459 7.201,1.376C9.427,2.293 11.194,3.561 12.503,5.176C13.114,5.875 13.397,6.607 13.354,7.371C13.31,8.136 12.939,8.779 12.242,9.303C11.543,9.785 10.713,9.937 9.754,9.762C8.794,9.588 7.987,9.195 7.332,8.583C6.241,7.535 5.063,6.814 3.798,6.421C2.531,6.028 1.069,5.831 -0.589,5.831C-2.51,5.831 -4.134,6.159 -5.466,6.814C-6.797,7.469 -7.462,8.43 -7.462,9.696C-7.462,10.482 -7.256,11.193 -6.841,11.826C-6.427,12.46 -5.608,13.027 -4.386,13.529C-3.165,14.032 -1.375,14.523 0.982,15.003C4.256,15.658 6.841,16.489 8.739,17.493C10.639,18.498 12.001,19.666 12.831,20.998C13.659,22.331 14.074,23.87 14.074,25.617C14.074,27.626 13.54,29.439 12.471,31.054C11.401,32.67 9.83,33.959 7.757,34.92C5.684,35.881 3.099,36.361 0,36.361" style="fill:rgb(71,143,205);fill-rule:nonzero;"/>
                </g>
            </g>
        </g>
    </g>
    <defs>
        <linearGradient id="_Linear2" x1="0" y1="0" x2="1" y2="0" gradientUnits="userSpaceOnUse" gradientTransform="matrix(1,0,0,-1,0,4.12096e-06)"><stop offset="0" style="stop-color:rgb(21,189,212);stop-opacity:1"/><stop offset="1" style="stop-color:rgb(70,143,204);stop-opacity:1"/></linearGradient>
        <linearGradient id="_Linear3" x1="0" y1="0" x2="1" y2="0" gradientUnits="userSpaceOnUse" gradientTransform="matrix(1,0,0,-1,0,-3.4585e-06)"><stop offset="0" style="stop-color:rgb(21,189,212);stop-opacity:1"/><stop offset="1" style="stop-color:rgb(70,143,204);stop-opacity:1"/></linearGradient>
        <linearGradient id="_Linear4" x1="0" y1="0" x2="1" y2="0" gradientUnits="userSpaceOnUse" gradientTransform="matrix(1,0,0,-1,0,-2.9098e-06)"><stop offset="0" style="stop-color:rgb(21,189,212);stop-opacity:1"/><stop offset="1" style="stop-color:rgb(70,143,204);stop-opacity:1"/></linearGradient>
    </defs>
</svg>
